<svg width="4651" height="3006" viewBox="0 0 4651 3006" fill="none" xmlns="http://www.w3.org/2000/svg">
<g clip-path="url(#clip0_2_748)">
<path d="M10 0V3006" stroke="#FEDA79"/>
<path d="M20 0V3006" stroke="#FEDA79"/>
<path d="M30 0V3006" stroke="#FEDA79"/>
<path d="M40 0V3006" stroke="#FEDA79"/>
<path d="M50 0V3006" stroke="#FEDA79"/>
<path d="M60 0V3006" stroke="#FEDA79"/>
<path d="M70 0V3006" stroke="#FEDA79"/>
<path d="M80 0V3006" stroke="#FEDA79"/>
<path d="M90 0V3006" stroke="#FEDA79"/>
<path d="M100 0V3006" stroke="#FEDA79"/>
<path d="M110 0V3006" stroke="#FEDA79"/>
<path d="M120 0V3006" stroke="#FEDA79"/>
<path d="M130 0V3006" stroke="#FEDA79"/>
<path d="M140 0V3006" stroke="#FEDA79"/>
<path d="M150 0V3006" stroke="#FEDA79"/>
<path d="M160 0V3006" stroke="#FEDA79"/>
<path d="M170 0V3006" stroke="#FEDA79"/>
<path d="M180 0V3006" stroke="#FEDA79"/>
<path d="M190 0V3006" stroke="#FEDA79"/>
<path d="M200 0V3006" stroke="#FEDA79"/>
<path d="M210 0V3006" stroke="#FEDA79"/>
<path d="M220 0V3006" stroke="#FEDA79"/>
<path d="M230 0V3006" stroke="#FEDA79"/>
<path d="M240 0V3006" stroke="#FEDA79"/>
<path d="M250 0V3006" stroke="#FEDA79"/>
<path d="M260 0V3006" stroke="#FEDA79"/>
<path d="M270 0V3006" stroke="#FEDA79"/>
<path d="M280 0V3006" stroke="#FEDA79"/>
<path d="M290 0V3006" stroke="#FEDA79"/>
<path d="M300 0V3006" stroke="#FEDA79"/>
<path d="M310 0V3006" stroke="#FEDA79"/>
<path d="M320 0V3006" stroke="#FEDA79"/>
<path d="M330 0V3006" stroke="#FEDA79"/>
<path d="M340 0V3006" stroke="#FEDA79"/>
<path d="M350 0V3006" stroke="#FEDA79"/>
<path d="M360 0V3006" stroke="#FEDA79"/>
<path d="M370 0V3006" stroke="#FEDA79"/>
<path d="M380 0V3006" stroke="#FEDA79"/>
<path d="M390 0V3006" stroke="#FEDA79"/>
<path d="M400 0V3006" stroke="#FEDA79"/>
<path d="M410 0V3006" stroke="#FEDA79"/>
<path d="M420 0V3006" stroke="#FEDA79"/>
<path d="M430 0V3006" stroke="#FEDA79"/>
<path d="M440 0V3006" stroke="#FEDA79"/>
<path d="M450 0V3006" stroke="#FEDA79"/>
<path d="M460 0V3006" stroke="#FEDA79"/>
<path d="M470 0V3006" stroke="#FEDA79"/>
<path d="M480 0V3006" stroke="#FEDA79"/>
<path d="M490 0V3006" stroke="#FEDA79"/>
<path d="M500 0V3006" stroke="#FEDA79"/>
<path d="M510 0V3006" stroke="#FEDA79"/>
<path d="M520 0V3006" stroke="#FEDA79"/>
<path d="M530 0V3006" stroke="#FEDA79"/>
<path d="M540 0V3006" stroke="#FEDA79"/>
<path d="M550 0V3006" stroke="#FEDA79"/>
<path d="M560 0V3006" stroke="#FEDA79"/>
<path d="M570 0V3006" stroke="#FEDA79"/>
<path d="M580 0V3006" stroke="#FEDA79"/>
<path d="M590 0V3006" stroke="#FEDA79"/>
<path d="M600 0V3006" stroke="#FEDA79"/>
<path d="M610 0V3006" stroke="#FEDA79"/>
<path d="M620 0V3006" stroke="#FEDA79"/>
<path d="M630 0V3006" stroke="#FEDA79"/>
<path d="M640 0V3006" stroke="#FEDA79"/>
<path d="M650 0V3006" stroke="#FEDA79"/>
<path d="M660 0V3006" stroke="#FEDA79"/>
<path d="M670 0V3006" stroke="#FEDA79"/>
<path d="M680 0V3006" stroke="#FEDA79"/>
<path d="M690 0V3006" stroke="#FEDA79"/>
<path d="M700 0V3006" stroke="#FEDA79"/>
<path d="M710 0V3006" stroke="#FEDA79"/>
<path d="M720 0V3006" stroke="#FEDA79"/>
<path d="M730 0V3006" stroke="#FEDA79"/>
<path d="M740 0V3006" stroke="#FEDA79"/>
<path d="M750 0V3006" stroke="#FEDA79"/>
<path d="M760 0V3006" stroke="#FEDA79"/>
<path d="M770 0V3006" stroke="#FEDA79"/>
<path d="M780 0V3006" stroke="#FEDA79"/>
<path d="M790 0V3006" stroke="#FEDA79"/>
<path d="M800 0V3006" stroke="#FEDA79"/>
<path d="M810 0V3006" stroke="#FEDA79"/>
<path d="M820 0V3006" stroke="#FEDA79"/>
<path d="M830 0V3006" stroke="#FEDA79"/>
<path d="M840 0V3006" stroke="#FEDA79"/>
<path d="M850 0V3006" stroke="#FEDA79"/>
<path d="M860 0V3006" stroke="#FEDA79"/>
<path d="M870 0V3006" stroke="#FEDA79"/>
<path d="M880 0V3006" stroke="#FEDA79"/>
<path d="M890 0V3006" stroke="#FEDA79"/>
<path d="M900 0V3006" stroke="#FEDA79"/>
<path d="M910 0V3006" stroke="#FEDA79"/>
<path d="M920 0V3006" stroke="#FEDA79"/>
<path d="M930 0V3006" stroke="#FEDA79"/>
<path d="M940 0V3006" stroke="#FEDA79"/>
<path d="M950 0V3006" stroke="#FEDA79"/>
<path d="M960 0V3006" stroke="#FEDA79"/>
<path d="M970 0V3006" stroke="#FEDA79"/>
<path d="M980 0V3006" stroke="#FEDA79"/>
<path d="M990 0V3006" stroke="#FEDA79"/>
<path d="M1000 0V3006" stroke="#FEDA79"/>
<path d="M1010 0V3006" stroke="#FEDA79"/>
<path d="M1020 0V3006" stroke="#FEDA79"/>
<path d="M1030 0V3006" stroke="#FEDA79"/>
<path d="M1040 0V3006" stroke="#FEDA79"/>
<path d="M1050 0V3006" stroke="#FEDA79"/>
<path d="M1060 0V3006" stroke="#FEDA79"/>
<path d="M1070 0V3006" stroke="#FEDA79"/>
<path d="M1080 0V3006" stroke="#FEDA79"/>
<path d="M1090 0V3006" stroke="#FEDA79"/>
<path d="M1100 0V3006" stroke="#FEDA79"/>
<path d="M1110 0V3006" stroke="#FEDA79"/>
<path d="M1120 0V3006" stroke="#FEDA79"/>
<path d="M1130 0V3006" stroke="#FEDA79"/>
<path d="M1140 0V3006" stroke="#FEDA79"/>
<path d="M1150 0V3006" stroke="#FEDA79"/>
<path d="M1160 0V3006" stroke="#FEDA79"/>
<path d="M1170 0V3006" stroke="#FEDA79"/>
<path d="M1180 0V3006" stroke="#FEDA79"/>
<path d="M1190 0V3006" stroke="#FEDA79"/>
<path d="M1200 0V3006" stroke="#FEDA79"/>
<path d="M1210 0V3006" stroke="#FEDA79"/>
<path d="M1220 0V3006" stroke="#FEDA79"/>
<path d="M1230 0V3006" stroke="#FEDA79"/>
<path d="M1240 0V3006" stroke="#FEDA79"/>
<path d="M1250 0V3006" stroke="#FEDA79"/>
<path d="M1260 0V3006" stroke="#FEDA79"/>
<path d="M1270 0V3006" stroke="#FEDA79"/>
<path d="M1280 0V3006" stroke="#FEDA79"/>
<path d="M1290 0V3006" stroke="#FEDA79"/>
<path d="M1300 0V3006" stroke="#FEDA79"/>
<path d="M1310 0V3006" stroke="#FEDA79"/>
<path d="M1320 0V3006" stroke="#FEDA79"/>
<path d="M1330 0V3006" stroke="#FEDA79"/>
<path d="M1340 0V3006" stroke="#FEDA79"/>
<path d="M1350 0V3006" stroke="#FEDA79"/>
<path d="M1360 0V3006" stroke="#FEDA79"/>
<path d="M1370 0V3006" stroke="#FEDA79"/>
<path d="M1380 0V3006" stroke="#FEDA79"/>
<path d="M1390 0V3006" stroke="#FEDA79"/>
<path d="M1400 0V3006" stroke="#FEDA79"/>
<path d="M1410 0V3006" stroke="#FEDA79"/>
<path d="M1420 0V3006" stroke="#FEDA79"/>
<path d="M1430 0V3006" stroke="#FEDA79"/>
<path d="M1440 0V3006" stroke="#FEDA79"/>
<path d="M1450 0V3006" stroke="#FEDA79"/>
<path d="M1460 0V3006" stroke="#FEDA79"/>
<path d="M1470 0V3006" stroke="#FEDA79"/>
<path d="M1480 0V3006" stroke="#FEDA79"/>
<path d="M1490 0V3006" stroke="#FEDA79"/>
<path d="M1500 0V3006" stroke="#FEDA79"/>
<path d="M1510 0V3006" stroke="#FEDA79"/>
<path d="M1520 0V3006" stroke="#FEDA79"/>
<path d="M1530 0V3006" stroke="#FEDA79"/>
<path d="M1540 0V3006" stroke="#FEDA79"/>
<path d="M1550 0V3006" stroke="#FEDA79"/>
<path d="M1560 0V3006" stroke="#FEDA79"/>
<path d="M1570 0V3006" stroke="#FEDA79"/>
<path d="M1580 0V3006" stroke="#FEDA79"/>
<path d="M1590 0V3006" stroke="#FEDA79"/>
<path d="M1600 0V3006" stroke="#FEDA79"/>
<path d="M1610 0V3006" stroke="#FEDA79"/>
<path d="M1620 0V3006" stroke="#FEDA79"/>
<path d="M1630 0V3006" stroke="#FEDA79"/>
<path d="M1640 0V3006" stroke="#FEDA79"/>
<path d="M1650 0V3006" stroke="#FEDA79"/>
<path d="M1660 0V3006" stroke="#FEDA79"/>
<path d="M1670 0V3006" stroke="#FEDA79"/>
<path d="M1680 0V3006" stroke="#FEDA79"/>
<path d="M1690 0V3006" stroke="#FEDA79"/>
<path d="M1700 0V3006" stroke="#FEDA79"/>
<path d="M1710 0V3006" stroke="#FEDA79"/>
<path d="M1720 0V3006" stroke="#FEDA79"/>
<path d="M1730 0V3006" stroke="#FEDA79"/>
<path d="M1740 0V3006" stroke="#FEDA79"/>
<path d="M1750 0V3006" stroke="#FEDA79"/>
<path d="M1760 0V3006" stroke="#FEDA79"/>
<path d="M1770 0V3006" stroke="#FEDA79"/>
<path d="M1780 0V3006" stroke="#FEDA79"/>
<path d="M1790 0V3006" stroke="#FEDA79"/>
<path d="M1800 0V3006" stroke="#FEDA79"/>
<path d="M1810 0V3006" stroke="#FEDA79"/>
<path d="M1820 0V3006" stroke="#FEDA79"/>
<path d="M1830 0V3006" stroke="#FEDA79"/>
<path d="M1840 0V3006" stroke="#FEDA79"/>
<path d="M1850 0V3006" stroke="#FEDA79"/>
<path d="M1860 0V3006" stroke="#FEDA79"/>
<path d="M1870 0V3006" stroke="#FEDA79"/>
<path d="M1880 0V3006" stroke="#FEDA79"/>
<path d="M1890 0V3006" stroke="#FEDA79"/>
<path d="M1900 0V3006" stroke="#FEDA79"/>
<path d="M1910 0V3006" stroke="#FEDA79"/>
<path d="M1920 0V3006" stroke="#FEDA79"/>
<path d="M1930 0V3006" stroke="#FEDA79"/>
<path d="M1940 0V3006" stroke="#FEDA79"/>
<path d="M1950 0V3006" stroke="#FEDA79"/>
<path d="M1960 0V3006" stroke="#FEDA79"/>
<path d="M1970 0V3006" stroke="#FEDA79"/>
<path d="M1980 0V3006" stroke="#FEDA79"/>
<path d="M1990 0V3006" stroke="#FEDA79"/>
<path d="M2000 0V3006" stroke="#FEDA79"/>
<path d="M2010 0V3006" stroke="#FEDA79"/>
<path d="M2020 0V3006" stroke="#FEDA79"/>
<path d="M2030 0V3006" stroke="#FEDA79"/>
<path d="M2040 0V3006" stroke="#FEDA79"/>
<path d="M2050 0V3006" stroke="#FEDA79"/>
<path d="M2060 0V3006" stroke="#FEDA79"/>
<path d="M2070 0V3006" stroke="#FEDA79"/>
<path d="M2080 0V3006" stroke="#FEDA79"/>
<path d="M2090 0V3006" stroke="#FEDA79"/>
<path d="M2100 0V3006" stroke="#FEDA79"/>
<path d="M2110 0V3006" stroke="#FEDA79"/>
<path d="M2120 0V3006" stroke="#FEDA79"/>
<path d="M2130 0V3006" stroke="#FEDA79"/>
<path d="M2140 0V3006" stroke="#FEDA79"/>
<path d="M2150 0V3006" stroke="#FEDA79"/>
<path d="M2160 0V3006" stroke="#FEDA79"/>
<path d="M2170 0V3006" stroke="#FEDA79"/>
<path d="M2180 0V3006" stroke="#FEDA79"/>
<path d="M2190 0V3006" stroke="#FEDA79"/>
<path d="M2200 0V3006" stroke="#FEDA79"/>
<path d="M2210 0V3006" stroke="#FEDA79"/>
<path d="M2220 0V3006" stroke="#FEDA79"/>
<path d="M2230 0V3006" stroke="#FEDA79"/>
<path d="M2240 0V3006" stroke="#FEDA79"/>
<path d="M2250 0V3006" stroke="#FEDA79"/>
<path d="M2260 0V3006" stroke="#FEDA79"/>
<path d="M2270 0V3006" stroke="#FEDA79"/>
<path d="M2280 0V3006" stroke="#FEDA79"/>
<path d="M2290 0V3006" stroke="#FEDA79"/>
<path d="M2300 0V3006" stroke="#FEDA79"/>
<path d="M2310 0V3006" stroke="#FEDA79"/>
<path d="M2320 0V3006" stroke="#FEDA79"/>
<path d="M2330 0V3006" stroke="#FEDA79"/>
<path d="M2340 0V3006" stroke="#FEDA79"/>
<path d="M2350 0V3006" stroke="#FEDA79"/>
<path d="M2360 0V3006" stroke="#FEDA79"/>
<path d="M2370 0V3006" stroke="#FEDA79"/>
<path d="M2380 0V3006" stroke="#FEDA79"/>
<path d="M2390 0V3006" stroke="#FEDA79"/>
<path d="M2400 0V3006" stroke="#FEDA79"/>
<path d="M2410 0V3006" stroke="#FEDA79"/>
<path d="M2420 0V3006" stroke="#FEDA79"/>
<path d="M2430 0V3006" stroke="#FEDA79"/>
<path d="M2440 0V3006" stroke="#FEDA79"/>
<path d="M2450 0V3006" stroke="#FEDA79"/>
<path d="M2460 0V3006" stroke="#FEDA79"/>
<path d="M2470 0V3006" stroke="#FEDA79"/>
<path d="M2480 0V3006" stroke="#FEDA79"/>
<path d="M2490 0V3006" stroke="#FEDA79"/>
<path d="M2500 0V3006" stroke="#FEDA79"/>
<path d="M2510 0V3006" stroke="#FEDA79"/>
<path d="M2520 0V3006" stroke="#FEDA79"/>
<path d="M2530 0V3006" stroke="#FEDA79"/>
<path d="M2540 0V3006" stroke="#FEDA79"/>
<path d="M2550 0V3006" stroke="#FEDA79"/>
<path d="M2560 0V3006" stroke="#FEDA79"/>
<path d="M2570 0V3006" stroke="#FEDA79"/>
<path d="M2580 0V3006" stroke="#FEDA79"/>
<path d="M2590 0V3006" stroke="#FEDA79"/>
<path d="M2600 0V3006" stroke="#FEDA79"/>
<path d="M2610 0V3006" stroke="#FEDA79"/>
<path d="M2620 0V3006" stroke="#FEDA79"/>
<path d="M2630 0V3006" stroke="#FEDA79"/>
<path d="M2640 0V3006" stroke="#FEDA79"/>
<path d="M2650 0V3006" stroke="#FEDA79"/>
<path d="M2660 0V3006" stroke="#FEDA79"/>
<path d="M2670 0V3006" stroke="#FEDA79"/>
<path d="M2680 0V3006" stroke="#FEDA79"/>
<path d="M2690 0V3006" stroke="#FEDA79"/>
<path d="M2700 0V3006" stroke="#FEDA79"/>
<path d="M2710 0V3006" stroke="#FEDA79"/>
<path d="M2720 0V3006" stroke="#FEDA79"/>
<path d="M2730 0V3006" stroke="#FEDA79"/>
<path d="M2740 0V3006" stroke="#FEDA79"/>
<path d="M2750 0V3006" stroke="#FEDA79"/>
<path d="M2760 0V3006" stroke="#FEDA79"/>
<path d="M2770 0V3006" stroke="#FEDA79"/>
<path d="M2780 0V3006" stroke="#FEDA79"/>
<path d="M2790 0V3006" stroke="#FEDA79"/>
<path d="M2800 0V3006" stroke="#FEDA79"/>
<path d="M2810 0V3006" stroke="#FEDA79"/>
<path d="M2820 0V3006" stroke="#FEDA79"/>
<path d="M2830 0V3006" stroke="#FEDA79"/>
<path d="M2840 0V3006" stroke="#FEDA79"/>
<path d="M2850 0V3006" stroke="#FEDA79"/>
<path d="M2860 0V3006" stroke="#FEDA79"/>
<path d="M2870 0V3006" stroke="#FEDA79"/>
<path d="M2880 0V3006" stroke="#FEDA79"/>
<path d="M2890 0V3006" stroke="#FEDA79"/>
<path d="M2900 0V3006" stroke="#FEDA79"/>
<path d="M2910 0V3006" stroke="#FEDA79"/>
<path d="M2920 0V3006" stroke="#FEDA79"/>
<path d="M2930 0V3006" stroke="#FEDA79"/>
<path d="M2940 0V3006" stroke="#FEDA79"/>
<path d="M2950 0V3006" stroke="#FEDA79"/>
<path d="M2960 0V3006" stroke="#FEDA79"/>
<path d="M2970 0V3006" stroke="#FEDA79"/>
<path d="M2980 0V3006" stroke="#FEDA79"/>
<path d="M2990 0V3006" stroke="#FEDA79"/>
<path d="M3000 0V3006" stroke="#FEDA79"/>
<path d="M3010 0V3006" stroke="#FEDA79"/>
<path d="M3020 0V3006" stroke="#FEDA79"/>
<path d="M3030 0V3006" stroke="#FEDA79"/>
<path d="M3040 0V3006" stroke="#FEDA79"/>
<path d="M3050 0V3006" stroke="#FEDA79"/>
<path d="M3060 0V3006" stroke="#FEDA79"/>
<path d="M3070 0V3006" stroke="#FEDA79"/>
<path d="M3080 0V3006" stroke="#FEDA79"/>
<path d="M3090 0V3006" stroke="#FEDA79"/>
<path d="M3100 0V3006" stroke="#FEDA79"/>
<path d="M3110 0V3006" stroke="#FEDA79"/>
<path d="M3120 0V3006" stroke="#FEDA79"/>
<path d="M3130 0V3006" stroke="#FEDA79"/>
<path d="M3140 0V3006" stroke="#FEDA79"/>
<path d="M3150 0V3006" stroke="#FEDA79"/>
<path d="M3160 0V3006" stroke="#FEDA79"/>
<path d="M3170 0V3006" stroke="#FEDA79"/>
<path d="M3180 0V3006" stroke="#FEDA79"/>
<path d="M3190 0V3006" stroke="#FEDA79"/>
<path d="M3200 0V3006" stroke="#FEDA79"/>
<path d="M3210 0V3006" stroke="#FEDA79"/>
<path d="M3220 0V3006" stroke="#FEDA79"/>
<path d="M3230 0V3006" stroke="#FEDA79"/>
<path d="M3240 0V3006" stroke="#FEDA79"/>
<path d="M3250 0V3006" stroke="#FEDA79"/>
<path d="M3260 0V3006" stroke="#FEDA79"/>
<path d="M3270 0V3006" stroke="#FEDA79"/>
<path d="M3280 0V3006" stroke="#FEDA79"/>
<path d="M3290 0V3006" stroke="#FEDA79"/>
<path d="M3300 0V3006" stroke="#FEDA79"/>
<path d="M3310 0V3006" stroke="#FEDA79"/>
<path d="M3320 0V3006" stroke="#FEDA79"/>
<path d="M3330 0V3006" stroke="#FEDA79"/>
<path d="M3340 0V3006" stroke="#FEDA79"/>
<path d="M3350 0V3006" stroke="#FEDA79"/>
<path d="M3360 0V3006" stroke="#FEDA79"/>
<path d="M3370 0V3006" stroke="#FEDA79"/>
<path d="M3380 0V3006" stroke="#FEDA79"/>
<path d="M3390 0V3006" stroke="#FEDA79"/>
<path d="M3400 0V3006" stroke="#FEDA79"/>
<path d="M3410 0V3006" stroke="#FEDA79"/>
<path d="M3420 0V3006" stroke="#FEDA79"/>
<path d="M3430 0V3006" stroke="#FEDA79"/>
<path d="M3440 0V3006" stroke="#FEDA79"/>
<path d="M3450 0V3006" stroke="#FEDA79"/>
<path d="M3460 0V3006" stroke="#FEDA79"/>
<path d="M3470 0V3006" stroke="#FEDA79"/>
<path d="M3480 0V3006" stroke="#FEDA79"/>
<path d="M3490 0V3006" stroke="#FEDA79"/>
<path d="M3500 0V3006" stroke="#FEDA79"/>
<path d="M3510 0V3006" stroke="#FEDA79"/>
<path d="M3520 0V3006" stroke="#FEDA79"/>
<path d="M3530 0V3006" stroke="#FEDA79"/>
<path d="M3540 0V3006" stroke="#FEDA79"/>
<path d="M3550 0V3006" stroke="#FEDA79"/>
<path d="M3560 0V3006" stroke="#FEDA79"/>
<path d="M3570 0V3006" stroke="#FEDA79"/>
<path d="M3580 0V3006" stroke="#FEDA79"/>
<path d="M3590 0V3006" stroke="#FEDA79"/>
<path d="M3600 0V3006" stroke="#FEDA79"/>
<path d="M3610 0V3006" stroke="#FEDA79"/>
<path d="M3620 0V3006" stroke="#FEDA79"/>
<path d="M3630 0V3006" stroke="#FEDA79"/>
<path d="M3640 0V3006" stroke="#FEDA79"/>
<path d="M3650 0V3006" stroke="#FEDA79"/>
<path d="M3660 0V3006" stroke="#FEDA79"/>
<path d="M3670 0V3006" stroke="#FEDA79"/>
<path d="M3680 0V3006" stroke="#FEDA79"/>
<path d="M3690 0V3006" stroke="#FEDA79"/>
<path d="M3700 0V3006" stroke="#FEDA79"/>
<path d="M3710 0V3006" stroke="#FEDA79"/>
<path d="M3720 0V3006" stroke="#FEDA79"/>
<path d="M3730 0V3006" stroke="#FEDA79"/>
<path d="M3740 0V3006" stroke="#FEDA79"/>
<path d="M3750 0V3006" stroke="#FEDA79"/>
<path d="M3760 0V3006" stroke="#FEDA79"/>
<path d="M3770 0V3006" stroke="#FEDA79"/>
<path d="M3780 0V3006" stroke="#FEDA79"/>
<path d="M3790 0V3006" stroke="#FEDA79"/>
<path d="M3800 0V3006" stroke="#FEDA79"/>
<path d="M3810 0V3006" stroke="#FEDA79"/>
<path d="M3820 0V3006" stroke="#FEDA79"/>
<path d="M3830 0V3006" stroke="#FEDA79"/>
<path d="M3840 0V3006" stroke="#FEDA79"/>
<path d="M3850 0V3006" stroke="#FEDA79"/>
<path d="M3860 0V3006" stroke="#FEDA79"/>
<path d="M3870 0V3006" stroke="#FEDA79"/>
<path d="M3880 0V3006" stroke="#FEDA79"/>
<path d="M3890 0V3006" stroke="#FEDA79"/>
<path d="M3900 0V3006" stroke="#FEDA79"/>
<path d="M3910 0V3006" stroke="#FEDA79"/>
<path d="M3920 0V3006" stroke="#FEDA79"/>
<path d="M3930 0V3006" stroke="#FEDA79"/>
<path d="M3940 0V3006" stroke="#FEDA79"/>
<path d="M3950 0V3006" stroke="#FEDA79"/>
<path d="M3960 0V3006" stroke="#FEDA79"/>
<path d="M3970 0V3006" stroke="#FEDA79"/>
<path d="M3980 0V3006" stroke="#FEDA79"/>
<path d="M3990 0V3006" stroke="#FEDA79"/>
<path d="M4000 0V3006" stroke="#FEDA79"/>
<path d="M4010 0V3006" stroke="#FEDA79"/>
<path d="M4020 0V3006" stroke="#FEDA79"/>
<path d="M4030 0V3006" stroke="#FEDA79"/>
<path d="M4040 0V3006" stroke="#FEDA79"/>
<path d="M4050 0V3006" stroke="#FEDA79"/>
<path d="M4060 0V3006" stroke="#FEDA79"/>
<path d="M4070 0V3006" stroke="#FEDA79"/>
<path d="M4080 0V3006" stroke="#FEDA79"/>
<path d="M4090 0V3006" stroke="#FEDA79"/>
<path d="M4100 0V3006" stroke="#FEDA79"/>
<path d="M4110 0V3006" stroke="#FEDA79"/>
<path d="M4120 0V3006" stroke="#FEDA79"/>
<path d="M4130 0V3006" stroke="#FEDA79"/>
<path d="M4140 0V3006" stroke="#FEDA79"/>
<path d="M4150 0V3006" stroke="#FEDA79"/>
<path d="M4160 0V3006" stroke="#FEDA79"/>
<path d="M4170 0V3006" stroke="#FEDA79"/>
<path d="M4180 0V3006" stroke="#FEDA79"/>
<path d="M4190 0V3006" stroke="#FEDA79"/>
<path d="M4200 0V3006" stroke="#FEDA79"/>
<path d="M4210 0V3006" stroke="#FEDA79"/>
<path d="M4220 0V3006" stroke="#FEDA79"/>
<path d="M4230 0V3006" stroke="#FEDA79"/>
<path d="M4240 0V3006" stroke="#FEDA79"/>
<path d="M4250 0V3006" stroke="#FEDA79"/>
<path d="M4260 0V3006" stroke="#FEDA79"/>
<path d="M4270 0V3006" stroke="#FEDA79"/>
<path d="M4280 0V3006" stroke="#FEDA79"/>
<path d="M4290 0V3006" stroke="#FEDA79"/>
<path d="M4300 0V3006" stroke="#FEDA79"/>
<path d="M4310 0V3006" stroke="#FEDA79"/>
<path d="M4320 0V3006" stroke="#FEDA79"/>
<path d="M4330 0V3006" stroke="#FEDA79"/>
<path d="M4340 0V3006" stroke="#FEDA79"/>
<path d="M4350 0V3006" stroke="#FEDA79"/>
<path d="M4360 0V3006" stroke="#FEDA79"/>
<path d="M4370 0V3006" stroke="#FEDA79"/>
<path d="M4380 0V3006" stroke="#FEDA79"/>
<path d="M4390 0V3006" stroke="#FEDA79"/>
<path d="M4400 0V3006" stroke="#FEDA79"/>
<path d="M4410 0V3006" stroke="#FEDA79"/>
<path d="M4420 0V3006" stroke="#FEDA79"/>
<path d="M4430 0V3006" stroke="#FEDA79"/>
<path d="M4440 0V3006" stroke="#FEDA79"/>
<path d="M4450 0V3006" stroke="#FEDA79"/>
<path d="M4460 0V3006" stroke="#FEDA79"/>
<path d="M4470 0V3006" stroke="#FEDA79"/>
<path d="M4480 0V3006" stroke="#FEDA79"/>
<path d="M4490 0V3006" stroke="#FEDA79"/>
<path d="M4500 0V3006" stroke="#FEDA79"/>
<path d="M4510 0V3006" stroke="#FEDA79"/>
<path d="M4520 0V3006" stroke="#FEDA79"/>
<path d="M4530 0V3006" stroke="#FEDA79"/>
<path d="M4540 0V3006" stroke="#FEDA79"/>
<path d="M4550 0V3006" stroke="#FEDA79"/>
<path d="M4560 0V3006" stroke="#FEDA79"/>
<path d="M4570 0V3006" stroke="#FEDA79"/>
<path d="M4580 0V3006" stroke="#FEDA79"/>
<path d="M4590 0V3006" stroke="#FEDA79"/>
<path d="M4600 0V3006" stroke="#FEDA79"/>
<path d="M4610 0V3006" stroke="#FEDA79"/>
<path d="M4620 0V3006" stroke="#FEDA79"/>
<path d="M4630 0V3006" stroke="#FEDA79"/>
<path d="M4640 0V3006" stroke="#FEDA79"/>
<path d="M4650 0V3006" stroke="#FEDA79"/>
<path d="M-1 10H4650" stroke="#FEDA79"/>
<path d="M-1 20H4650" stroke="#FEDA79"/>
<path d="M-1 30H4650" stroke="#FEDA79"/>
<path d="M-1 40H4650" stroke="#FEDA79"/>
<path d="M-1 50H4650" stroke="#FEDA79"/>
<path d="M-1 60H4650" stroke="#FEDA79"/>
<path d="M-1 70H4650" stroke="#FEDA79"/>
<path d="M-1 80H4650" stroke="#FEDA79"/>
<path d="M-1 90H4650" stroke="#FEDA79"/>
<path d="M-1 100H4650" stroke="#FEDA79"/>
<path d="M-1 110H4650" stroke="#FEDA79"/>
<path d="M-1 120H4650" stroke="#FEDA79"/>
<path d="M-1 130H4650" stroke="#FEDA79"/>
<path d="M-1 140H4650" stroke="#FEDA79"/>
<path d="M-1 150H4650" stroke="#FEDA79"/>
<path d="M-1 160H4650" stroke="#FEDA79"/>
<path d="M-1 170H4650" stroke="#FEDA79"/>
<path d="M-1 180H4650" stroke="#FEDA79"/>
<path d="M-1 190H4650" stroke="#FEDA79"/>
<path d="M-1 200H4650" stroke="#FEDA79"/>
<path d="M-1 210H4650" stroke="#FEDA79"/>
<path d="M-1 220H4650" stroke="#FEDA79"/>
<path d="M-1 230H4650" stroke="#FEDA79"/>
<path d="M-1 240H4650" stroke="#FEDA79"/>
<path d="M-1 250H4650" stroke="#FEDA79"/>
<path d="M-1 260H4650" stroke="#FEDA79"/>
<path d="M-1 270H4650" stroke="#FEDA79"/>
<path d="M-1 280H4650" stroke="#FEDA79"/>
<path d="M-1 290H4650" stroke="#FEDA79"/>
<path d="M-1 300H4650" stroke="#FEDA79"/>
<path d="M-1 310H4650" stroke="#FEDA79"/>
<path d="M-1 320H4650" stroke="#FEDA79"/>
<path d="M-1 330H4650" stroke="#FEDA79"/>
<path d="M-1 340H4650" stroke="#FEDA79"/>
<path d="M-1 350H4650" stroke="#FEDA79"/>
<path d="M-1 360H4650" stroke="#FEDA79"/>
<path d="M-1 370H4650" stroke="#FEDA79"/>
<path d="M-1 380H4650" stroke="#FEDA79"/>
<path d="M-1 390H4650" stroke="#FEDA79"/>
<path d="M-1 400H4650" stroke="#FEDA79"/>
<path d="M-1 410H4650" stroke="#FEDA79"/>
<path d="M-1 420H4650" stroke="#FEDA79"/>
<path d="M-1 430H4650" stroke="#FEDA79"/>
<path d="M-1 440H4650" stroke="#FEDA79"/>
<path d="M-1 450H4650" stroke="#FEDA79"/>
<path d="M-1 460H4650" stroke="#FEDA79"/>
<path d="M-1 470H4650" stroke="#FEDA79"/>
<path d="M-1 480H4650" stroke="#FEDA79"/>
<path d="M-1 490H4650" stroke="#FEDA79"/>
<path d="M-1 500H4650" stroke="#FEDA79"/>
<path d="M-1 510H4650" stroke="#FEDA79"/>
<path d="M-1 520H4650" stroke="#FEDA79"/>
<path d="M-1 530H4650" stroke="#FEDA79"/>
<path d="M-1 540H4650" stroke="#FEDA79"/>
<path d="M-1 550H4650" stroke="#FEDA79"/>
<path d="M-1 560H4650" stroke="#FEDA79"/>
<path d="M-1 570H4650" stroke="#FEDA79"/>
<path d="M-1 580H4650" stroke="#FEDA79"/>
<path d="M-1 590H4650" stroke="#FEDA79"/>
<path d="M-1 600H4650" stroke="#FEDA79"/>
<path d="M-1 610H4650" stroke="#FEDA79"/>
<path d="M-1 620H4650" stroke="#FEDA79"/>
<path d="M-1 630H4650" stroke="#FEDA79"/>
<path d="M-1 640H4650" stroke="#FEDA79"/>
<path d="M-1 650H4650" stroke="#FEDA79"/>
<path d="M-1 660H4650" stroke="#FEDA79"/>
<path d="M-1 670H4650" stroke="#FEDA79"/>
<path d="M-1 680H4650" stroke="#FEDA79"/>
<path d="M-1 690H4650" stroke="#FEDA79"/>
<path d="M-1 700H4650" stroke="#FEDA79"/>
<path d="M-1 710H4650" stroke="#FEDA79"/>
<path d="M-1 720H4650" stroke="#FEDA79"/>
<path d="M-1 730H4650" stroke="#FEDA79"/>
<path d="M-1 740H4650" stroke="#FEDA79"/>
<path d="M-1 750H4650" stroke="#FEDA79"/>
<path d="M-1 760H4650" stroke="#FEDA79"/>
<path d="M-1 770H4650" stroke="#FEDA79"/>
<path d="M-1 780H4650" stroke="#FEDA79"/>
<path d="M-1 790H4650" stroke="#FEDA79"/>
<path d="M-1 800H4650" stroke="#FEDA79"/>
<path d="M-1 810H4650" stroke="#FEDA79"/>
<path d="M-1 820H4650" stroke="#FEDA79"/>
<path d="M-1 830H4650" stroke="#FEDA79"/>
<path d="M-1 840H4650" stroke="#FEDA79"/>
<path d="M-1 850H4650" stroke="#FEDA79"/>
<path d="M-1 860H4650" stroke="#FEDA79"/>
<path d="M-1 870H4650" stroke="#FEDA79"/>
<path d="M-1 880H4650" stroke="#FEDA79"/>
<path d="M-1 890H4650" stroke="#FEDA79"/>
<path d="M-1 900H4650" stroke="#FEDA79"/>
<path d="M-1 910H4650" stroke="#FEDA79"/>
<path d="M-1 920H4650" stroke="#FEDA79"/>
<path d="M-1 930H4650" stroke="#FEDA79"/>
<path d="M-1 940H4650" stroke="#FEDA79"/>
<path d="M-1 950H4650" stroke="#FEDA79"/>
<path d="M-1 960H4650" stroke="#FEDA79"/>
<path d="M-1 970H4650" stroke="#FEDA79"/>
<path d="M-1 980H4650" stroke="#FEDA79"/>
<path d="M-1 990H4650" stroke="#FEDA79"/>
<path d="M-1 1000H4650" stroke="#FEDA79"/>
<path d="M-1 1010H4650" stroke="#FEDA79"/>
<path d="M-1 1020H4650" stroke="#FEDA79"/>
<path d="M-1 1030H4650" stroke="#FEDA79"/>
<path d="M-1 1040H4650" stroke="#FEDA79"/>
<path d="M-1 1050H4650" stroke="#FEDA79"/>
<path d="M-1 1060H4650" stroke="#FEDA79"/>
<path d="M-1 1070H4650" stroke="#FEDA79"/>
<path d="M-1 1080H4650" stroke="#FEDA79"/>
<path d="M-1 1090H4650" stroke="#FEDA79"/>
<path d="M-1 1100H4650" stroke="#FEDA79"/>
<path d="M-1 1110H4650" stroke="#FEDA79"/>
<path d="M-1 1120H4650" stroke="#FEDA79"/>
<path d="M-1 1130H4650" stroke="#FEDA79"/>
<path d="M-1 1140H4650" stroke="#FEDA79"/>
<path d="M-1 1150H4650" stroke="#FEDA79"/>
<path d="M-1 1160H4650" stroke="#FEDA79"/>
<path d="M-1 1170H4650" stroke="#FEDA79"/>
<path d="M-1 1180H4650" stroke="#FEDA79"/>
<path d="M-1 1190H4650" stroke="#FEDA79"/>
<path d="M-1 1200H4650" stroke="#FEDA79"/>
<path d="M-1 1210H4650" stroke="#FEDA79"/>
<path d="M-1 1220H4650" stroke="#FEDA79"/>
<path d="M-1 1230H4650" stroke="#FEDA79"/>
<path d="M-1 1240H4650" stroke="#FEDA79"/>
<path d="M-1 1250H4650" stroke="#FEDA79"/>
<path d="M-1 1260H4650" stroke="#FEDA79"/>
<path d="M-1 1270H4650" stroke="#FEDA79"/>
<path d="M-1 1280H4650" stroke="#FEDA79"/>
<path d="M-1 1290H4650" stroke="#FEDA79"/>
<path d="M-1 1300H4650" stroke="#FEDA79"/>
<path d="M-1 1310H4650" stroke="#FEDA79"/>
<path d="M-1 1320H4650" stroke="#FEDA79"/>
<path d="M-1 1330H4650" stroke="#FEDA79"/>
<path d="M-1 1340H4650" stroke="#FEDA79"/>
<path d="M-1 1350H4650" stroke="#FEDA79"/>
<path d="M-1 1360H4650" stroke="#FEDA79"/>
<path d="M-1 1370H4650" stroke="#FEDA79"/>
<path d="M-1 1380H4650" stroke="#FEDA79"/>
<path d="M-1 1390H4650" stroke="#FEDA79"/>
<path d="M-1 1400H4650" stroke="#FEDA79"/>
<path d="M-1 1410H4650" stroke="#FEDA79"/>
<path d="M-1 1420H4650" stroke="#FEDA79"/>
<path d="M-1 1430H4650" stroke="#FEDA79"/>
<path d="M-1 1440H4650" stroke="#FEDA79"/>
<path d="M-1 1450H4650" stroke="#FEDA79"/>
<path d="M-1 1460H4650" stroke="#FEDA79"/>
<path d="M-1 1470H4650" stroke="#FEDA79"/>
<path d="M-1 1480H4650" stroke="#FEDA79"/>
<path d="M-1 1490H4650" stroke="#FEDA79"/>
<path d="M-1 1500H4650" stroke="#FEDA79"/>
<path d="M-1 1510H4650" stroke="#FEDA79"/>
<path d="M-1 1520H4650" stroke="#FEDA79"/>
<path d="M-1 1530H4650" stroke="#FEDA79"/>
<path d="M-1 1540H4650" stroke="#FEDA79"/>
<path d="M-1 1550H4650" stroke="#FEDA79"/>
<path d="M-1 1560H4650" stroke="#FEDA79"/>
<path d="M-1 1570H4650" stroke="#FEDA79"/>
<path d="M-1 1580H4650" stroke="#FEDA79"/>
<path d="M-1 1590H4650" stroke="#FEDA79"/>
<path d="M-1 1600H4650" stroke="#FEDA79"/>
<path d="M-1 1610H4650" stroke="#FEDA79"/>
<path d="M-1 1620H4650" stroke="#FEDA79"/>
<path d="M-1 1630H4650" stroke="#FEDA79"/>
<path d="M-1 1640H4650" stroke="#FEDA79"/>
<path d="M-1 1650H4650" stroke="#FEDA79"/>
<path d="M-1 1660H4650" stroke="#FEDA79"/>
<path d="M-1 1670H4650" stroke="#FEDA79"/>
<path d="M-1 1680H4650" stroke="#FEDA79"/>
<path d="M-1 1690H4650" stroke="#FEDA79"/>
<path d="M-1 1700H4650" stroke="#FEDA79"/>
<path d="M-1 1710H4650" stroke="#FEDA79"/>
<path d="M-1 1720H4650" stroke="#FEDA79"/>
<path d="M-1 1730H4650" stroke="#FEDA79"/>
<path d="M-1 1740H4650" stroke="#FEDA79"/>
<path d="M-1 1750H4650" stroke="#FEDA79"/>
<path d="M-1 1760H4650" stroke="#FEDA79"/>
<path d="M-1 1770H4650" stroke="#FEDA79"/>
<path d="M-1 1780H4650" stroke="#FEDA79"/>
<path d="M-1 1790H4650" stroke="#FEDA79"/>
<path d="M-1 1800H4650" stroke="#FEDA79"/>
<path d="M-1 1810H4650" stroke="#FEDA79"/>
<path d="M-1 1820H4650" stroke="#FEDA79"/>
<path d="M-1 1830H4650" stroke="#FEDA79"/>
<path d="M-1 1840H4650" stroke="#FEDA79"/>
<path d="M-1 1850H4650" stroke="#FEDA79"/>
<path d="M-1 1860H4650" stroke="#FEDA79"/>
<path d="M-1 1870H4650" stroke="#FEDA79"/>
<path d="M-1 1880H4650" stroke="#FEDA79"/>
<path d="M-1 1890H4650" stroke="#FEDA79"/>
<path d="M-1 1900H4650" stroke="#FEDA79"/>
<path d="M-1 1910H4650" stroke="#FEDA79"/>
<path d="M-1 1920H4650" stroke="#FEDA79"/>
<path d="M-1 1930H4650" stroke="#FEDA79"/>
<path d="M-1 1940H4650" stroke="#FEDA79"/>
<path d="M-1 1950H4650" stroke="#FEDA79"/>
<path d="M-1 1960H4650" stroke="#FEDA79"/>
<path d="M-1 1970H4650" stroke="#FEDA79"/>
<path d="M-1 1980H4650" stroke="#FEDA79"/>
<path d="M-1 1990H4650" stroke="#FEDA79"/>
<path d="M-1 2000H4650" stroke="#FEDA79"/>
<path d="M-1 2010H4650" stroke="#FEDA79"/>
<path d="M-1 2020H4650" stroke="#FEDA79"/>
<path d="M-1 2030H4650" stroke="#FEDA79"/>
<path d="M-1 2040H4650" stroke="#FEDA79"/>
<path d="M-1 2050H4650" stroke="#FEDA79"/>
<path d="M-1 2060H4650" stroke="#FEDA79"/>
<path d="M-1 2070H4650" stroke="#FEDA79"/>
<path d="M-1 2080H4650" stroke="#FEDA79"/>
<path d="M-1 2090H4650" stroke="#FEDA79"/>
<path d="M-1 2100H4650" stroke="#FEDA79"/>
<path d="M-1 2110H4650" stroke="#FEDA79"/>
<path d="M-1 2120H4650" stroke="#FEDA79"/>
<path d="M-1 2130H4650" stroke="#FEDA79"/>
<path d="M-1 2140H4650" stroke="#FEDA79"/>
<path d="M-1 2150H4650" stroke="#FEDA79"/>
<path d="M-1 2160H4650" stroke="#FEDA79"/>
<path d="M-1 2170H4650" stroke="#FEDA79"/>
<path d="M-1 2180H4650" stroke="#FEDA79"/>
<path d="M-1 2190H4650" stroke="#FEDA79"/>
<path d="M-1 2200H4650" stroke="#FEDA79"/>
<path d="M-1 2210H4650" stroke="#FEDA79"/>
<path d="M-1 2220H4650" stroke="#FEDA79"/>
<path d="M-1 2230H4650" stroke="#FEDA79"/>
<path d="M-1 2240H4650" stroke="#FEDA79"/>
<path d="M-1 2250H4650" stroke="#FEDA79"/>
<path d="M-1 2260H4650" stroke="#FEDA79"/>
<path d="M-1 2270H4650" stroke="#FEDA79"/>
<path d="M-1 2280H4650" stroke="#FEDA79"/>
<path d="M-1 2290H4650" stroke="#FEDA79"/>
<path d="M-1 2300H4650" stroke="#FEDA79"/>
<path d="M-1 2310H4650" stroke="#FEDA79"/>
<path d="M-1 2320H4650" stroke="#FEDA79"/>
<path d="M-1 2330H4650" stroke="#FEDA79"/>
<path d="M-1 2340H4650" stroke="#FEDA79"/>
<path d="M-1 2350H4650" stroke="#FEDA79"/>
<path d="M-1 2360H4650" stroke="#FEDA79"/>
<path d="M-1 2370H4650" stroke="#FEDA79"/>
<path d="M-1 2380H4650" stroke="#FEDA79"/>
<path d="M-1 2390H4650" stroke="#FEDA79"/>
<path d="M-1 2400H4650" stroke="#FEDA79"/>
<path d="M-1 2410H4650" stroke="#FEDA79"/>
<path d="M-1 2420H4650" stroke="#FEDA79"/>
<path d="M-1 2430H4650" stroke="#FEDA79"/>
<path d="M-1 2440H4650" stroke="#FEDA79"/>
<path d="M-1 2450H4650" stroke="#FEDA79"/>
<path d="M-1 2460H4650" stroke="#FEDA79"/>
<path d="M-1 2470H4650" stroke="#FEDA79"/>
<path d="M-1 2480H4650" stroke="#FEDA79"/>
<path d="M-1 2490H4650" stroke="#FEDA79"/>
<path d="M-1 2500H4650" stroke="#FEDA79"/>
<path d="M-1 2510H4650" stroke="#FEDA79"/>
<path d="M-1 2520H4650" stroke="#FEDA79"/>
<path d="M-1 2530H4650" stroke="#FEDA79"/>
<path d="M-1 2540H4650" stroke="#FEDA79"/>
<path d="M-1 2550H4650" stroke="#FEDA79"/>
<path d="M-1 2560H4650" stroke="#FEDA79"/>
<path d="M-1 2570H4650" stroke="#FEDA79"/>
<path d="M-1 2580H4650" stroke="#FEDA79"/>
<path d="M-1 2590H4650" stroke="#FEDA79"/>
<path d="M-1 2600H4650" stroke="#FEDA79"/>
<path d="M-1 2610H4650" stroke="#FEDA79"/>
<path d="M-1 2620H4650" stroke="#FEDA79"/>
<path d="M-1 2630H4650" stroke="#FEDA79"/>
<path d="M-1 2640H4650" stroke="#FEDA79"/>
<path d="M-1 2650H4650" stroke="#FEDA79"/>
<path d="M-1 2660H4650" stroke="#FEDA79"/>
<path d="M-1 2670H4650" stroke="#FEDA79"/>
<path d="M-1 2680H4650" stroke="#FEDA79"/>
<path d="M-1 2690H4650" stroke="#FEDA79"/>
<path d="M-1 2700H4650" stroke="#FEDA79"/>
<path d="M-1 2710H4650" stroke="#FEDA79"/>
<path d="M-1 2720H4650" stroke="#FEDA79"/>
<path d="M-1 2730H4650" stroke="#FEDA79"/>
<path d="M-1 2740H4650" stroke="#FEDA79"/>
<path d="M-1 2750H4650" stroke="#FEDA79"/>
<path d="M-1 2760H4650" stroke="#FEDA79"/>
<path d="M-1 2770H4650" stroke="#FEDA79"/>
<path d="M-1 2780H4650" stroke="#FEDA79"/>
<path d="M-1 2790H4650" stroke="#FEDA79"/>
<path d="M-1 2800H4650" stroke="#FEDA79"/>
<path d="M-1 2810H4650" stroke="#FEDA79"/>
<path d="M-1 2820H4650" stroke="#FEDA79"/>
<path d="M-1 2830H4650" stroke="#FEDA79"/>
<path d="M-1 2840H4650" stroke="#FEDA79"/>
<path d="M-1 2850H4650" stroke="#FEDA79"/>
<path d="M-1 2860H4650" stroke="#FEDA79"/>
<path d="M-1 2870H4650" stroke="#FEDA79"/>
<path d="M-1 2880H4650" stroke="#FEDA79"/>
<path d="M-1 2890H4650" stroke="#FEDA79"/>
<path d="M-1 2900H4650" stroke="#FEDA79"/>
<path d="M-1 2910H4650" stroke="#FEDA79"/>
<path d="M-1 2920H4650" stroke="#FEDA79"/>
<path d="M-1 2930H4650" stroke="#FEDA79"/>
<path d="M-1 2940H4650" stroke="#FEDA79"/>
<path d="M-1 2950H4650" stroke="#FEDA79"/>
<path d="M-1 2960H4650" stroke="#FEDA79"/>
<path d="M-1 2970H4650" stroke="#FEDA79"/>
<path d="M-1 2980H4650" stroke="#FEDA79"/>
<path d="M-1 2990H4650" stroke="#FEDA79"/>
<path d="M-1 3000H4650" stroke="#FEDA79"/>
</g>
<defs>
<clipPath id="clip0_2_748">
<rect width="4651" height="3006" fill="white"/>
</clipPath>
</defs>
</svg>
